name C:\Users\u0101727\Documents\MyRepositories\upper-imu-dc\Results\main_tracking\Case_45\FLX01_orientations_groundFrame.mot
datacolumns 13
datarows 43
range 3.50600000 3.75800000
endheader 
time	radius_imu_[0][0]	radius_imu_[0][1]	radius_imu_[0][2]	radius_imu_[1][0]	radius_imu_[1][1]	radius_imu_[1][2]	radius_imu_[2][0]	radius_imu_[2][1]	radius_imu_[2][2]	radius_imu_x	radius_imu_y	radius_imu_z	
          3.50600000	          0.95315376	         -0.12605549	         -0.27496895	         -0.05135616	         -0.96327058	          0.26357604	         -0.29809471	         -0.23710714	         -0.92461870	         -2.86389377	         -0.27855741	          0.13148790	
          3.51200000	          0.95322795	         -0.12656806	         -0.27447585	         -0.05196831	         -0.96320921	          0.26368031	         -0.29775117	         -0.23708340	         -0.92473548	         -2.86382278	         -0.27804458	          0.13200623	
          3.51800000	          0.95330167	         -0.12707826	         -0.27398366	         -0.05257183	         -0.96314288	          0.26380296	         -0.29740904	         -0.23707998	         -0.92484645	         -2.86373178	         -0.27753277	          0.13252202	
          3.52400000	          0.95337520	         -0.12758449	         -0.27349209	         -0.05316517	         -0.96307161	          0.26394419	         -0.29706765	         -0.23709760	         -0.92495164	         -2.86362058	         -0.27702167	          0.13303361	
          3.53000000	          0.95344889	         -0.12808524	         -0.27300069	         -0.05374692	         -0.96299551	          0.26410400	         -0.29672626	         -0.23713672	         -0.92505119	         -2.86348924	         -0.27651083	          0.13353937	
          3.53600000	          0.95352312	         -0.12857908	         -0.27250887	         -0.05431590	         -0.96291471	          0.26428213	         -0.29638396	         -0.23719755	         -0.92514532	         -2.86333807	         -0.27599963	          0.13403780	
          3.54200000	          0.95359826	         -0.12906468	         -0.27201594	         -0.05487112	         -0.96282942	          0.26447812	         -0.29603973	         -0.23728005	         -0.92523438	         -2.86316766	         -0.27548734	          0.13452746	
          3.54800000	          0.95367473	         -0.12954081	         -0.27152107	         -0.05541180	         -0.96273986	          0.26469130	         -0.29569248	         -0.23738393	         -0.92531877	         -2.86297878	         -0.27497312	          0.13500704	
          3.55400000	          0.95375294	         -0.13000635	         -0.27102340	         -0.05593733	         -0.96264634	          0.26492081	         -0.29534108	         -0.23750867	         -0.92539898	         -2.86277246	         -0.27445607	          0.13547535	
          3.56000000	          0.95383328	         -0.13046032	         -0.27052206	         -0.05644731	         -0.96254917	          0.26516562	         -0.29498437	         -0.23765355	         -0.92547556	         -2.86254989	         -0.27393527	          0.13593131	
          3.56600000	          0.95391612	         -0.13090186	         -0.27001619	         -0.05694148	         -0.96244869	          0.26542455	         -0.29462129	         -0.23781764	         -0.92554906	         -2.86231239	         -0.27340985	          0.13637399	
          3.57200000	          0.95400177	         -0.13133026	         -0.26950508	         -0.05741974	         -0.96234527	          0.26569635	         -0.29425091	         -0.23799988	         -0.92562004	         -2.86206140	         -0.27287906	          0.13680263	
          3.57800000	          0.95409047	         -0.13174496	         -0.26898817	         -0.05788212	         -0.96223930	          0.26597969	         -0.29387247	         -0.23819908	         -0.92568902	         -2.86179840	         -0.27234232	          0.13721662	
          3.58400000	          0.95418238	         -0.13214557	         -0.26846513	         -0.05832878	         -0.96213114	          0.26627321	         -0.29348549	         -0.23841397	         -0.92575647	         -2.86152488	         -0.27179931	          0.13761553	
          3.59000000	          0.95427755	         -0.13253187	         -0.26793594	         -0.05875993	         -0.96202117	          0.26657559	         -0.29308981	         -0.23864320	         -0.92582276	         -2.86124228	         -0.27125000	          0.13799916	
          3.59600000	          0.95437588	         -0.13290384	         -0.26740091	         -0.05917591	         -0.96190973	          0.26688553	         -0.29268565	         -0.23888542	         -0.92588815	         -2.86095196	         -0.27069471	          0.13836748	
          3.60200000	          0.95447718	         -0.13326164	         -0.26686073	         -0.05957710	         -0.96179714	          0.26720185	         -0.29227365	         -0.23913928	         -0.92595276	         -2.86065514	         -0.27013416	          0.13872070	
          3.60800000	          0.95458108	         -0.13360565	         -0.26631652	         -0.05996394	         -0.96168368	          0.26752351	         -0.29185490	         -0.23940349	         -0.92601657	         -2.86035287	         -0.26956951	          0.13905926	
          3.61400000	          0.95468709	         -0.13393645	         -0.26576979	         -0.06033693	         -0.96156958	          0.26784958	         -0.29143096	         -0.23967680	         -0.92607938	         -2.86004600	         -0.26900234	          0.13938385	
          3.62000000	          0.95479457	         -0.13425485	         -0.26522249	         -0.06069662	         -0.96145502	          0.26817935	         -0.29100387	         -0.23995808	         -0.92614085	         -2.85973516	         -0.26843467	          0.13969538	
          3.62600000	          0.95490272	         -0.13456188	         -0.26467697	         -0.06104361	         -0.96134012	          0.26851229	         -0.29057611	         -0.24024628	         -0.92620044	         -2.85942072	         -0.26786893	          0.13999505	
          3.63200000	          0.95501063	         -0.13485880	         -0.26413597	         -0.06137857	         -0.96122494	          0.26884808	         -0.29015061	         -0.24054048	         -0.92625747	         -2.85910280	         -0.26730796	          0.14028428	
          3.63800000	          0.95511726	         -0.13514709	         -0.26360253	         -0.06170224	         -0.96110946	          0.26918661	         -0.28973067	         -0.24083991	         -0.92631111	         -2.85878127	         -0.26675493	          0.14056475	
          3.64400000	          0.95522146	         -0.13542848	         -0.26308001	         -0.06201544	         -0.96099362	          0.26952799	         -0.28931998	         -0.24114390	         -0.92636039	         -2.85845573	         -0.26621329	          0.14083840	
          3.65000000	          0.95532200	         -0.13570491	         -0.26257200	         -0.06231908	         -0.96087727	          0.26987256	         -0.28892250	         -0.24145195	         -0.92640420	         -2.85812554	         -0.26568677	          0.14110743	
          3.65600000	          0.95541756	         -0.13597858	         -0.26208225	         -0.06261422	         -0.96076020	          0.27022083	         -0.28854244	         -0.24176365	         -0.92644136	         -2.85778982	         -0.26517924	          0.14137426	
          3.66200000	          0.95550678	         -0.13625186	         -0.26161463	         -0.06290200	         -0.96064213	          0.27057352	         -0.28818418	         -0.24207875	         -0.92647059	         -2.85744750	         -0.26469472	          0.14164156	
          3.66800000	          0.95558824	         -0.13652740	         -0.26117308	         -0.06318375	         -0.96052273	          0.27093153	         -0.28785225	         -0.24239709	         -0.92649055	         -2.85709729	         -0.26423726	          0.14191222	
          3.67400000	          0.95566051	         -0.13680800	         -0.26076151	         -0.06346092	         -0.96040161	          0.27129588	         -0.28755122	         -0.24271860	         -0.92649985	         -2.85673775	         -0.26381092	          0.14218937	
          3.68000000	          0.95572212	         -0.13709670	         -0.26038379	         -0.06373516	         -0.96027832	          0.27166777	         -0.28728566	         -0.24304329	         -0.92649712	         -2.85636731	         -0.26341968	          0.14247632	
          3.68600000	          0.95577165	         -0.13739670	         -0.26004366	         -0.06400827	         -0.96015237	          0.27204846	         -0.28706010	         -0.24337126	         -0.92648094	         -2.85598427	         -0.26306742	          0.14277658	
          3.69200000	          0.95580765	         -0.13771139	         -0.25974470	         -0.06428225	         -0.96002323	          0.27243933	         -0.28687895	         -0.24370262	         -0.92644995	         -2.85558686	         -0.26275782	          0.14309384	
          3.69800000	          0.95582873	         -0.13804432	         -0.25949027	         -0.06455928	         -0.95989033	          0.27284180	         -0.28674646	         -0.24403752	         -0.92640280	         -2.85517327	         -0.26249436	          0.14343194	
          3.70400000	          0.95583354	         -0.13839915	         -0.25928346	         -0.06484173	         -0.95975308	          0.27325735	         -0.28666669	         -0.24437615	         -0.92633823	         -2.85474165	         -0.26228022	          0.14379485	
          3.71000000	          0.95582078	         -0.13877967	         -0.25912707	         -0.06513214	         -0.95961085	          0.27368746	         -0.28664340	         -0.24471866	         -0.92625501	         -2.85429014	         -0.26211829	          0.14418666	
          3.71600000	          0.95578921	         -0.13918977	         -0.25902355	         -0.06543323	         -0.95946300	          0.27413363	         -0.28668011	         -0.24506522	         -0.92615201	         -2.85381693	         -0.26201112	          0.14461154	
          3.72200000	          0.95573765	         -0.13963340	         -0.25897500	         -0.06574788	         -0.95930888	          0.27459732	         -0.28677997	         -0.24541594	         -0.92602822	         -2.85332022	         -0.26196084	          0.14507374	
          3.72800000	          0.95566504	         -0.14011456	         -0.25898309	         -0.06607913	         -0.95914783	          0.27507997	         -0.28694577	         -0.24577094	         -0.92588270	         -2.85279831	         -0.26196922	          0.14557752	
          3.73400000	          0.95557037	         -0.14063724	         -0.25904909	         -0.06643014	         -0.95897918	          0.27558296	         -0.28717991	         -0.24613024	         -0.92571464	         -2.85224956	         -0.26203756	          0.14612718	
          3.74000000	          0.95545274	         -0.14120547	         -0.25917385	         -0.06680420	         -0.95880227	          0.27610760	         -0.28748437	         -0.24649386	         -0.92552337	         -2.85167243	         -0.26216672	          0.14672697	
          3.74600000	          0.95531133	         -0.14182320	         -0.25935774	         -0.06720469	         -0.95861644	          0.27665512	         -0.28786070	         -0.24686172	         -0.92530833	         -2.85106551	         -0.26235712	          0.14738112	
          3.75200000	          0.95514545	         -0.14249436	         -0.25960070	         -0.06763509	         -0.95842103	          0.27722666	         -0.28831001	         -0.24723367	         -0.92506911	         -2.85042752	         -0.26260871	          0.14809379	
          3.75800000	          0.95495448	         -0.14322277	         -0.25990226	         -0.06809892	         -0.95821541	          0.27782325	         -0.28883297	         -0.24760950	         -0.92480541	         -2.84975732	         -0.26292098	          0.14886905	
